# xmcd
#
# Track frame offsets:
#	150
#	12661
#	31527
#	46750
#	64299
#	81877
#	97408
#	110267
#	127559
#	143093
#
# Disc length: 2114 seconds
#
# Revision: 1
# Processed by: cddbd v1.5.2PL0 Copyright (c) Steve Scherf et al.
# Submitted via: EZCDAudioConverter 2.0.7.1
#
DISCID=7a08400a
DTITLE=Ronny Nilsen - En Dag I Mitt Liv
DYEAR=2015
DGENRE=Country
TTITLE0=Maria
TTITLE1=Hva Om Jeg Fikk Alt
TTITLE2=La Meg Få Vite
TTITLE3=I've Got Enough
TTITLE4=Når Alt Er Over
TTITLE5=Rett Deg Opp
TTITLE6=Dag For Dag
TTITLE7=Heng Deg På
TTITLE8=Jeg Har Deg (Nå Og For Evig)
TTITLE9=Rock N' Roller
EXTD=
EXTT0=
EXTT1=
EXTT2=
EXTT3=
EXTT4=
EXTT5=
EXTT6=
EXTT7=
EXTT8=
EXTT9=
PLAYORDER=
